<?xml version="1.0" encoding="utf-8" standalone="no"?>
<!DOCTYPE svg PUBLIC "-//W3C//DTD SVG 1.1//EN"
  "http://www.w3.org/Graphics/SVG/1.1/DTD/svg11.dtd">
<!-- Created with matplotlib (https://matplotlib.org/) -->
<svg height="269.424pt" version="1.1" viewBox="0 0 405 269.424" width="405pt" xmlns="http://www.w3.org/2000/svg" xmlns:xlink="http://www.w3.org/1999/xlink">
 <defs>
  <style type="text/css">
*{stroke-linecap:butt;stroke-linejoin:round;}
  </style>
 </defs>
 <g id="figure_1">
  <g id="patch_1">
   <path d="M 0 269.424 
L 405 269.424 
L 405 0 
L 0 0 
z
" style="fill:#ffffff;"/>
  </g>
  <g id="patch_2">
   <path d="M 7.2 262.224 
L 397.8 262.224 
L 397.8 7.2 
L 7.2 7.2 
z
" style="fill:#ffffff;"/>
  </g>
  <g id="pane3d_1">
   <g id="patch_3">
    <path d="M 207.778378 141.735182 
L 359.346993 191.865884 
L 367.452267 67.424925 
L 207.778378 22.427424 
" style="fill:#f2f2f2;opacity:0.5;stroke:#f2f2f2;stroke-linejoin:miter;"/>
   </g>
  </g>
  <g id="pane3d_2">
   <g id="patch_4">
    <path d="M 207.778378 141.735182 
L 56.209763 191.865884 
L 48.10449 67.424925 
L 207.778378 22.427424 
" style="fill:#e6e6e6;opacity:0.5;stroke:#e6e6e6;stroke-linejoin:miter;"/>
   </g>
  </g>
  <g id="pane3d_3">
   <g id="patch_5">
    <path d="M 207.778378 141.735182 
L 56.209763 191.865884 
L 207.778378 248.643025 
L 359.346993 191.865884 
" style="fill:#ececec;opacity:0.5;stroke:#ececec;stroke-linejoin:miter;"/>
   </g>
  </g>
  <g id="axis3d_1">
   <g id="line2d_1">
    <path d="M 359.346993 191.865884 
L 207.778378 248.643025 
" style="fill:none;stroke:#000000;stroke-linecap:square;stroke-width:0.8;"/>
   </g>
   <g id="text_1">
    <!-- F1 -->
    <defs>
     <path d="M 45.703125 61.328125 
L 13.671875 61.328125 
L 13.671875 39.453125 
L 37.890625 39.453125 
L 37.890625 32.03125 
L 13.671875 32.03125 
L 13.671875 1.953125 
L 4.6875 1.953125 
L 4.6875 68.75 
L 45.703125 68.75 
z
" id="SimHei-70"/>
     <path d="M 21.875 56.25 
Q 16.796875 51.171875 8.984375 46.484375 
L 8.984375 53.90625 
Q 18.75 60.546875 25 69.53125 
L 29.6875 69.53125 
L 29.6875 2.34375 
L 21.875 2.34375 
z
" id="SimHei-49"/>
    </defs>
    <g transform="translate(304.432273 248.549816)scale(0.1 -0.1)">
     <use xlink:href="#SimHei-70"/>
     <use x="50" xlink:href="#SimHei-49"/>
    </g>
   </g>
   <g id="Line3DCollection_1">
    <path d="M 350.265434 195.267809 
L 198.6637 144.749824 
L 198.204449 25.125441 
" style="fill:none;stroke:#b0b0b0;stroke-width:0.8;"/>
    <path d="M 325.040711 204.716913 
L 173.369204 153.115876 
L 171.616632 32.618121 
" style="fill:none;stroke:#b0b0b0;stroke-width:0.8;"/>
    <path d="M 299.25545 214.375993 
L 147.546331 161.656686 
L 144.444823 40.275375 
" style="fill:none;stroke:#b0b0b0;stroke-width:0.8;"/>
    <path d="M 272.890755 224.252127 
L 121.178349 170.377789 
L 116.669567 48.102686 
" style="fill:none;stroke:#b0b0b0;stroke-width:0.8;"/>
    <path d="M 245.926874 234.352715 
L 94.247816 179.284953 
L 88.270537 56.105781 
" style="fill:none;stroke:#b0b0b0;stroke-width:0.8;"/>
    <path d="M 218.343145 244.685495 
L 66.736533 188.384198 
L 59.226481 64.290651 
" style="fill:none;stroke:#b0b0b0;stroke-width:0.8;"/>
   </g>
   <g id="xtick_1">
    <g id="line2d_2">
     <path d="M 348.977563 194.838654 
L 352.845037 196.127406 
" style="fill:none;stroke:#000000;stroke-linecap:square;stroke-width:0.8;"/>
    </g>
    <g id="text_2">
     <!-- 0.0 -->
     <defs>
      <path d="M 3.125 29.296875 
Q 3.90625 50 6.4375 56.046875 
Q 8.984375 62.109375 13.671875 66.015625 
Q 18.359375 69.921875 25.1875 69.921875 
Q 32.03125 69.921875 37.109375 64.25 
Q 42.1875 58.59375 43.75 50 
Q 45.3125 41.40625 44.71875 30.265625 
Q 44.140625 19.140625 40.8125 12.109375 
Q 37.5 5.078125 30.859375 2.34375 
Q 24.21875 -0.390625 17.578125 2.921875 
Q 10.9375 6.25 8.203125 11.71875 
Q 5.46875 17.1875 4.296875 23.234375 
Q 3.125 29.296875 3.90625 50 
z
M 12.890625 52.734375 
Q 10.546875 31.25 12.5 22.84375 
Q 14.453125 14.453125 18.9375 10.9375 
Q 23.4375 7.421875 28.125 9.5625 
Q 32.8125 11.71875 34.953125 18.15625 
Q 37.109375 24.609375 37.109375 32.21875 
Q 37.109375 39.84375 36.515625 46.09375 
Q 35.9375 52.34375 33 57.421875 
Q 30.078125 62.5 25.1875 62.6875 
Q 20.3125 62.890625 16.59375 57.8125 
Q 12.890625 52.734375 10.546875 31.25 
z
" id="SimHei-48"/>
      <path d="M 16.796875 1.953125 
L 7.8125 1.953125 
L 7.8125 10.546875 
L 16.796875 10.546875 
z
" id="SimHei-46"/>
     </defs>
     <g transform="translate(353.29362 213.922889)scale(0.1 -0.1)">
      <use xlink:href="#SimHei-48"/>
      <use x="50" xlink:href="#SimHei-46"/>
      <use x="100" xlink:href="#SimHei-48"/>
     </g>
    </g>
   </g>
   <g id="xtick_2">
    <g id="line2d_3">
     <path d="M 323.751423 204.278277 
L 327.623197 205.595515 
" style="fill:none;stroke:#000000;stroke-linecap:square;stroke-width:0.8;"/>
    </g>
    <g id="text_3">
     <!-- 0.1 -->
     <g transform="translate(328.164687 223.509034)scale(0.1 -0.1)">
      <use xlink:href="#SimHei-48"/>
      <use x="50" xlink:href="#SimHei-46"/>
      <use x="100" xlink:href="#SimHei-49"/>
     </g>
    </g>
   </g>
   <g id="xtick_3">
    <g id="line2d_4">
     <path d="M 297.964999 213.927558 
L 301.840308 215.274238 
" style="fill:none;stroke:#000000;stroke-linecap:square;stroke-width:0.8;"/>
    </g>
    <g id="text_4">
     <!-- 0.2 -->
     <defs>
      <path d="M 4.6875 3.90625 
Q 5.078125 9.765625 10.15625 14.453125 
Q 15.234375 19.140625 23.046875 29.09375 
Q 30.859375 39.0625 33.203125 44.53125 
Q 35.546875 50 34.953125 53.90625 
Q 34.375 57.8125 31.25 60.34375 
Q 28.125 62.890625 24.015625 62.5 
Q 19.921875 62.109375 16.203125 59.375 
Q 12.5 56.640625 10.546875 51.171875 
L 3.125 52.34375 
Q 6.25 61.328125 11.125 65.421875 
Q 16.015625 69.53125 22.65625 69.921875 
Q 26.5625 70.3125 29.6875 69.71875 
Q 32.8125 69.140625 36.125 66.984375 
Q 39.453125 64.84375 41.59375 60.546875 
Q 43.75 56.25 43.15625 50.1875 
Q 42.578125 44.140625 37.109375 35.734375 
Q 31.640625 27.34375 16.015625 9.375 
L 44.140625 9.375 
L 44.140625 2.34375 
L 4.6875 2.34375 
z
" id="SimHei-50"/>
     </defs>
     <g transform="translate(302.476896 233.308372)scale(0.1 -0.1)">
      <use xlink:href="#SimHei-48"/>
      <use x="50" xlink:href="#SimHei-46"/>
      <use x="100" xlink:href="#SimHei-50"/>
     </g>
    </g>
   </g>
   <g id="xtick_4">
    <g id="line2d_5">
     <path d="M 271.599414 223.793561 
L 275.477441 225.170681 
" style="fill:none;stroke:#000000;stroke-linecap:square;stroke-width:0.8;"/>
    </g>
    <g id="text_5">
     <!-- 0.3 -->
     <defs>
      <path d="M 3.90625 19.140625 
L 10.9375 20.3125 
Q 12.5 15.234375 16.015625 11.90625 
Q 19.53125 8.59375 24.796875 8.78125 
Q 30.078125 8.984375 33.203125 13.078125 
Q 36.328125 17.1875 35.9375 22.453125 
Q 35.546875 27.734375 31.828125 30.65625 
Q 28.125 33.59375 19.921875 34.765625 
L 19.921875 39.84375 
Q 28.125 40.625 31.828125 44.140625 
Q 35.546875 47.65625 35.15625 53.3125 
Q 34.765625 58.984375 30.078125 61.515625 
Q 25.390625 64.0625 20.109375 62.109375 
Q 14.84375 60.15625 11.71875 51.171875 
L 4.6875 52.34375 
Q 7.03125 59.375 11.125 64.0625 
Q 15.234375 68.75 22.265625 69.53125 
Q 29.296875 70.3125 34.5625 67.765625 
Q 39.84375 65.234375 41.984375 59.953125 
Q 44.140625 54.6875 42.578125 48.4375 
Q 41.015625 42.1875 33.59375 37.5 
Q 39.0625 35.15625 41.984375 30.46875 
Q 44.921875 25.78125 43.9375 18.15625 
Q 42.96875 10.546875 37.109375 5.859375 
Q 31.25 1.171875 23.828125 1.359375 
Q 16.40625 1.5625 10.9375 6.046875 
Q 5.46875 10.546875 3.90625 19.140625 
z
" id="SimHei-51"/>
     </defs>
     <g transform="translate(276.211394 243.328094)scale(0.1 -0.1)">
      <use xlink:href="#SimHei-48"/>
      <use x="50" xlink:href="#SimHei-46"/>
      <use x="100" xlink:href="#SimHei-51"/>
     </g>
    </g>
   </g>
   <g id="xtick_5">
    <g id="line2d_6">
     <path d="M 244.634935 233.88367 
L 248.514803 235.292274 
" style="fill:none;stroke:#000000;stroke-linecap:square;stroke-width:0.8;"/>
    </g>
    <g id="text_6">
     <!-- 0.4 -->
     <defs>
      <path d="M 31.25 17.1875 
L 1.171875 17.1875 
L 1.171875 23.828125 
L 32.8125 69.53125 
L 38.671875 69.53125 
L 38.671875 23.828125 
L 48.046875 23.828125 
L 48.046875 17.1875 
L 38.671875 17.1875 
L 38.671875 2.34375 
L 31.25 2.34375 
z
M 31.25 23.828125 
L 31.25 54.6875 
L 9.375 23.828125 
z
" id="SimHei-52"/>
     </defs>
     <g transform="translate(249.348471 253.57572)scale(0.1 -0.1)">
      <use xlink:href="#SimHei-48"/>
      <use x="50" xlink:href="#SimHei-46"/>
      <use x="100" xlink:href="#SimHei-52"/>
     </g>
    </g>
   </g>
   <g id="xtick_6">
    <g id="line2d_7">
     <path d="M 217.050922 244.205609 
L 220.931691 245.646789 
" style="fill:none;stroke:#000000;stroke-linecap:square;stroke-width:0.8;"/>
    </g>
    <g id="text_7">
     <!-- 0.5 -->
     <defs>
      <path d="M 8.59375 20.703125 
Q 11.328125 10.15625 17.96875 8.984375 
Q 24.609375 7.8125 28.703125 10.34375 
Q 32.8125 12.890625 34.5625 16.984375 
Q 36.328125 21.09375 36.125 26.171875 
Q 35.9375 31.25 33.390625 34.765625 
Q 30.859375 38.28125 26.953125 39.453125 
Q 23.046875 40.625 18.15625 39.453125 
Q 13.28125 38.28125 10.15625 33.984375 
L 3.515625 34.765625 
Q 4.296875 37.109375 10.9375 68.359375 
L 41.796875 68.359375 
L 41.796875 61.328125 
L 16.796875 61.328125 
Q 14.84375 50.78125 12.890625 44.53125 
Q 18.75 47.265625 23.828125 47.0625 
Q 28.90625 46.875 33.59375 44.71875 
Q 38.28125 42.578125 40.421875 38.859375 
Q 42.578125 35.15625 43.546875 31.4375 
Q 44.53125 27.734375 44.328125 23.4375 
Q 44.140625 19.140625 42.578125 14.640625 
Q 41.015625 10.15625 37.890625 7.21875 
Q 34.765625 4.296875 30.265625 2.53125 
Q 25.78125 0.78125 19.921875 1.171875 
Q 14.0625 1.5625 8.78125 5.46875 
Q 3.515625 9.375 1.5625 18.75 
z
" id="SimHei-53"/>
     </defs>
     <g transform="translate(221.867509 264.059113)scale(0.1 -0.1)">
      <use xlink:href="#SimHei-48"/>
      <use x="50" xlink:href="#SimHei-46"/>
      <use x="100" xlink:href="#SimHei-53"/>
     </g>
    </g>
   </g>
  </g>
  <g id="axis3d_2">
   <g id="line2d_8">
    <path d="M 56.209763 191.865884 
L 207.778378 248.643025 
" style="fill:none;stroke:#000000;stroke-linecap:square;stroke-width:0.8;"/>
   </g>
   <g id="text_8">
    <!-- F2 -->
    <g transform="translate(101.124484 248.549816)scale(0.1 -0.1)">
     <use xlink:href="#SimHei-70"/>
     <use x="50" xlink:href="#SimHei-50"/>
    </g>
   </g>
   <g id="Line3DCollection_2">
    <path d="M 217.352308 25.125441 
L 216.893056 144.749824 
L 65.291323 195.267809 
" style="fill:none;stroke:#b0b0b0;stroke-width:0.8;"/>
    <path d="M 243.941683 32.61856 
L 242.189034 153.116366 
L 90.517524 204.717467 
" style="fill:none;stroke:#b0b0b0;stroke-width:0.8;"/>
    <path d="M 271.115119 40.276273 
L 268.013452 161.657687 
L 116.30433 214.377125 
" style="fill:none;stroke:#b0b0b0;stroke-width:0.8;"/>
    <path d="M 298.892074 48.104062 
L 294.383042 170.379322 
L 142.670639 224.253864 
" style="fill:none;stroke:#b0b0b0;stroke-width:0.8;"/>
    <path d="M 327.29288 56.107658 
L 321.315254 179.287041 
L 169.636207 234.355084 
" style="fill:none;stroke:#b0b0b0;stroke-width:0.8;"/>
    <path d="M 356.338791 64.293051 
L 348.828286 188.386864 
L 197.2217 244.688525 
" style="fill:none;stroke:#b0b0b0;stroke-width:0.8;"/>
   </g>
   <g id="xtick_7">
    <g id="line2d_9">
     <path d="M 66.579194 194.838654 
L 62.711719 196.127406 
" style="fill:none;stroke:#000000;stroke-linecap:square;stroke-width:0.8;"/>
    </g>
    <g id="text_9">
     <!-- 0.0 -->
     <g transform="translate(47.263137 213.922889)scale(0.1 -0.1)">
      <use xlink:href="#SimHei-48"/>
      <use x="50" xlink:href="#SimHei-46"/>
      <use x="100" xlink:href="#SimHei-48"/>
     </g>
    </g>
   </g>
   <g id="xtick_8">
    <g id="line2d_10">
     <path d="M 91.806812 204.27883 
L 87.935039 205.59607 
" style="fill:none;stroke:#000000;stroke-linecap:square;stroke-width:0.8;"/>
    </g>
    <g id="text_10">
     <!-- 0.1 -->
     <g transform="translate(72.393543 223.509596)scale(0.1 -0.1)">
      <use xlink:href="#SimHei-48"/>
      <use x="50" xlink:href="#SimHei-46"/>
      <use x="100" xlink:href="#SimHei-49"/>
     </g>
    </g>
   </g>
   <g id="xtick_9">
    <g id="line2d_11">
     <path d="M 117.594782 213.928689 
L 113.719472 215.275373 
" style="fill:none;stroke:#000000;stroke-linecap:square;stroke-width:0.8;"/>
    </g>
    <g id="text_11">
     <!-- 0.2 -->
     <g transform="translate(98.082873 233.309521)scale(0.1 -0.1)">
      <use xlink:href="#SimHei-48"/>
      <use x="50" xlink:href="#SimHei-46"/>
      <use x="100" xlink:href="#SimHei-50"/>
     </g>
    </g>
   </g>
   <g id="xtick_10">
    <g id="line2d_12">
     <path d="M 143.961981 223.795296 
L 140.083953 225.172422 
" style="fill:none;stroke:#000000;stroke-linecap:square;stroke-width:0.8;"/>
    </g>
    <g id="text_12">
     <!-- 0.3 -->
     <g transform="translate(124.349982 243.329857)scale(0.1 -0.1)">
      <use xlink:href="#SimHei-48"/>
      <use x="50" xlink:href="#SimHei-46"/>
      <use x="100" xlink:href="#SimHei-51"/>
     </g>
    </g>
   </g>
   <g id="xtick_11">
    <g id="line2d_13">
     <path d="M 170.928147 233.886037 
L 167.048278 235.294648 
" style="fill:none;stroke:#000000;stroke-linecap:square;stroke-width:0.8;"/>
    </g>
    <g id="text_13">
     <!-- 0.4 -->
     <g transform="translate(151.214587 253.578123)scale(0.1 -0.1)">
      <use xlink:href="#SimHei-48"/>
      <use x="50" xlink:href="#SimHei-46"/>
      <use x="100" xlink:href="#SimHei-52"/>
     </g>
    </g>
   </g>
   <g id="xtick_12">
    <g id="line2d_14">
     <path d="M 198.513923 244.208636 
L 194.633155 245.649825 
" style="fill:none;stroke:#000000;stroke-linecap:square;stroke-width:0.8;"/>
    </g>
    <g id="text_14">
     <!-- 0.5 -->
     <g transform="translate(178.697306 264.062188)scale(0.1 -0.1)">
      <use xlink:href="#SimHei-48"/>
      <use x="50" xlink:href="#SimHei-46"/>
      <use x="100" xlink:href="#SimHei-53"/>
     </g>
    </g>
   </g>
  </g>
  <g id="axis3d_3">
   <g id="line2d_15">
    <path d="M 56.209763 191.865884 
L 48.10449 67.424925 
" style="fill:none;stroke:#000000;stroke-linecap:square;stroke-width:0.8;"/>
   </g>
   <g id="text_15">
    <!-- F3 -->
    <g transform="translate(1.014357 134.07823)scale(0.1 -0.1)">
     <use xlink:href="#SimHei-70"/>
     <use x="50" xlink:href="#SimHei-51"/>
    </g>
   </g>
   <g id="Line3DCollection_3">
    <path d="M 56.05573 189.501 
L 207.778378 139.460888 
L 359.501027 189.501 
" style="fill:none;stroke:#b0b0b0;stroke-width:0.8;"/>
    <path d="M 54.564468 166.605517 
L 207.778378 117.45643 
L 360.992289 166.605517 
" style="fill:none;stroke:#b0b0b0;stroke-width:0.8;"/>
    <path d="M 53.043599 143.255494 
L 207.778378 95.041192 
L 362.513158 143.255494 
" style="fill:none;stroke:#b0b0b0;stroke-width:0.8;"/>
    <path d="M 51.492234 119.437257 
L 207.778378 72.203562 
L 364.064522 119.437257 
" style="fill:none;stroke:#b0b0b0;stroke-width:0.8;"/>
    <path d="M 49.909447 95.136582 
L 207.778378 48.931489 
L 365.64731 95.136582 
" style="fill:none;stroke:#b0b0b0;stroke-width:0.8;"/>
    <path d="M 48.294272 70.338661 
L 207.778378 25.212455 
L 367.262485 70.338661 
" style="fill:none;stroke:#b0b0b0;stroke-width:0.8;"/>
   </g>
   <g id="xtick_13">
    <g id="line2d_16">
     <path d="M 57.344407 189.075978 
L 53.474523 190.352316 
" style="fill:none;stroke:#000000;stroke-linecap:square;stroke-width:0.8;"/>
    </g>
    <g id="text_16">
     <!-- 0.0 -->
     <g transform="translate(27.800392 196.376)scale(0.1 -0.1)">
      <use xlink:href="#SimHei-48"/>
      <use x="50" xlink:href="#SimHei-46"/>
      <use x="100" xlink:href="#SimHei-48"/>
     </g>
    </g>
   </g>
   <g id="xtick_14">
    <g id="line2d_17">
     <path d="M 55.866554 166.187825 
L 51.956364 167.442164 
" style="fill:none;stroke:#000000;stroke-linecap:square;stroke-width:0.8;"/>
    </g>
    <g id="text_17">
     <!-- 0.1 -->
     <g transform="translate(26.105128 173.480517)scale(0.1 -0.1)">
      <use xlink:href="#SimHei-48"/>
      <use x="50" xlink:href="#SimHei-46"/>
      <use x="100" xlink:href="#SimHei-49"/>
     </g>
    </g>
   </g>
   <g id="xtick_15">
    <g id="line2d_18">
     <path d="M 54.359376 142.845507 
L 50.408034 144.076718 
" style="fill:none;stroke:#000000;stroke-linecap:square;stroke-width:0.8;"/>
    </g>
    <g id="text_18">
     <!-- 0.2 -->
     <g transform="translate(24.376208 150.130494)scale(0.1 -0.1)">
      <use xlink:href="#SimHei-48"/>
      <use x="50" xlink:href="#SimHei-46"/>
      <use x="100" xlink:href="#SimHei-50"/>
     </g>
    </g>
   </g>
   <g id="xtick_16">
    <g id="line2d_19">
     <path d="M 52.821991 119.03537 
L 48.828625 120.242268 
" style="fill:none;stroke:#000000;stroke-linecap:square;stroke-width:0.8;"/>
    </g>
    <g id="text_19">
     <!-- 0.3 -->
     <g transform="translate(22.61262 126.312257)scale(0.1 -0.1)">
      <use xlink:href="#SimHei-48"/>
      <use x="50" xlink:href="#SimHei-46"/>
      <use x="100" xlink:href="#SimHei-51"/>
     </g>
    </g>
   </g>
   <g id="xtick_17">
    <g id="line2d_20">
     <path d="M 51.253483 94.74321 
L 47.217192 95.924552 
" style="fill:none;stroke:#000000;stroke-linecap:square;stroke-width:0.8;"/>
    </g>
    <g id="text_20">
     <!-- 0.4 -->
     <g transform="translate(20.81331 102.011582)scale(0.1 -0.1)">
      <use xlink:href="#SimHei-48"/>
      <use x="50" xlink:href="#SimHei-46"/>
      <use x="100" xlink:href="#SimHei-52"/>
     </g>
    </g>
   </g>
   <g id="xtick_18">
    <g id="line2d_21">
     <path d="M 49.652897 69.954237 
L 45.572751 71.108719 
" style="fill:none;stroke:#000000;stroke-linecap:square;stroke-width:0.8;"/>
    </g>
    <g id="text_21">
     <!-- 0.5 -->
     <g transform="translate(18.977183 77.213661)scale(0.1 -0.1)">
      <use xlink:href="#SimHei-48"/>
      <use x="50" xlink:href="#SimHei-46"/>
      <use x="100" xlink:href="#SimHei-53"/>
     </g>
    </g>
   </g>
  </g>
  <g id="axes_1">
   <g id="line2d_22">
    <defs>
     <path d="M 0 1.5 
C 0.397805 1.5 0.77937 1.341951 1.06066 1.06066 
C 1.341951 0.77937 1.5 0.397805 1.5 0 
C 1.5 -0.397805 1.341951 -0.77937 1.06066 -1.06066 
C 0.77937 -1.341951 0.397805 -1.5 0 -1.5 
C -0.397805 -1.5 -0.77937 -1.341951 -1.06066 -1.06066 
C -1.341951 -0.77937 -1.5 -0.397805 -1.5 0 
C -1.5 0.397805 -1.341951 0.77937 -1.06066 1.06066 
C -0.77937 1.341951 -0.397805 1.5 0 1.5 
z
" id="m6876e0390d" style="stroke:#4682b4;"/>
    </defs>
    <g clip-path="url(#p7b8a18e362)">
     <use style="fill:#4682b4;stroke:#4682b4;" x="207.760184" xlink:href="#m6876e0390d" y="83.126468"/>
     <use style="fill:#4682b4;stroke:#4682b4;" x="251.733992" xlink:href="#m6876e0390d" y="109.529126"/>
     <use style="fill:#4682b4;stroke:#4682b4;" x="152.728786" xlink:href="#m6876e0390d" y="149.521599"/>
     <use style="fill:#4682b4;stroke:#4682b4;" x="207.730818" xlink:href="#m6876e0390d" y="162.839567"/>
     <use style="fill:#4682b4;stroke:#4682b4;" x="163.527187" xlink:href="#m6876e0390d" y="163.014164"/>
     <use style="fill:#4682b4;stroke:#4682b4;" x="284.869487" xlink:href="#m6876e0390d" y="122.989962"/>
     <use style="fill:#4682b4;stroke:#4682b4;" x="163.75836" xlink:href="#m6876e0390d" y="136.240378"/>
     <use style="fill:#4682b4;stroke:#4682b4;" x="97.395296" xlink:href="#m6876e0390d" y="189.500951"/>
     <use style="fill:#4682b4;stroke:#4682b4;" x="75.365885" xlink:href="#m6876e0390d" y="189.501"/>
     <use style="fill:#4682b4;stroke:#4682b4;" x="185.847083" xlink:href="#m6876e0390d" y="162.881418"/>
     <use style="fill:#4682b4;stroke:#4682b4;" x="295.9187" xlink:href="#m6876e0390d" y="189.512368"/>
     <use style="fill:#4682b4;stroke:#4682b4;" x="207.778378" xlink:href="#m6876e0390d" y="30.362377"/>
     <use style="fill:#4682b4;stroke:#4682b4;" x="152.774317" xlink:href="#m6876e0390d" y="176.255955"/>
     <use style="fill:#4682b4;stroke:#4682b4;" x="185.697567" xlink:href="#m6876e0390d" y="189.506237"/>
     <use style="fill:#4682b4;stroke:#4682b4;" x="251.842496" xlink:href="#m6876e0390d" y="189.498349"/>
     <use style="fill:#4682b4;stroke:#4682b4;" x="229.863815" xlink:href="#m6876e0390d" y="162.928375"/>
     <use style="fill:#4682b4;stroke:#4682b4;" x="229.814473" xlink:href="#m6876e0390d" y="83.163417"/>
     <use style="fill:#4682b4;stroke:#4682b4;" x="218.741805" xlink:href="#m6876e0390d" y="96.448311"/>
     <use style="fill:#4682b4;stroke:#4682b4;" x="185.63937" xlink:href="#m6876e0390d" y="136.230276"/>
     <use style="fill:#4682b4;stroke:#4682b4;" x="284.881164" xlink:href="#m6876e0390d" y="149.526646"/>
     <use style="fill:#4682b4;stroke:#4682b4;" x="97.542675" xlink:href="#m6876e0390d" y="162.837849"/>
     <use style="fill:#4682b4;stroke:#4682b4;" x="240.737503" xlink:href="#m6876e0390d" y="96.463747"/>
     <use style="fill:#4682b4;stroke:#4682b4;" x="273.859244" xlink:href="#m6876e0390d" y="109.700889"/>
     <use style="fill:#4682b4;stroke:#4682b4;" x="141.4567" xlink:href="#m6876e0390d" y="162.788726"/>
     <use style="fill:#4682b4;stroke:#4682b4;" x="163.832326" xlink:href="#m6876e0390d" y="189.591761"/>
     <use style="fill:#4682b4;stroke:#4682b4;" x="152.691994" xlink:href="#m6876e0390d" y="122.940579"/>
     <use style="fill:#4682b4;stroke:#4682b4;" x="207.876903" xlink:href="#m6876e0390d" y="189.508616"/>
     <use style="fill:#4682b4;stroke:#4682b4;" x="318.125471" xlink:href="#m6876e0390d" y="189.5124"/>
     <use style="fill:#4682b4;stroke:#4682b4;" x="163.810498" xlink:href="#m6876e0390d" y="83.091431"/>
     <use style="fill:#4682b4;stroke:#4682b4;" x="174.8542" xlink:href="#m6876e0390d" y="149.554791"/>
     <use style="fill:#4682b4;stroke:#4682b4;" x="108.547786" xlink:href="#m6876e0390d" y="149.552046"/>
     <use style="fill:#4682b4;stroke:#4682b4;" x="207.881451" xlink:href="#m6876e0390d" y="109.855327"/>
     <use style="fill:#4682b4;stroke:#4682b4;" x="252.104698" xlink:href="#m6876e0390d" y="162.845265"/>
     <use style="fill:#4682b4;stroke:#4682b4;" x="273.856395" xlink:href="#m6876e0390d" y="162.755213"/>
     <use style="fill:#4682b4;stroke:#4682b4;" x="108.223151" xlink:href="#m6876e0390d" y="176.178645"/>
     <use style="fill:#4682b4;stroke:#4682b4;" x="207.761923" xlink:href="#m6876e0390d" y="56.724126"/>
     <use style="fill:#4682b4;stroke:#4682b4;" x="218.822373" xlink:href="#m6876e0390d" y="149.562844"/>
     <use style="fill:#4682b4;stroke:#4682b4;" x="185.719919" xlink:href="#m6876e0390d" y="56.656322"/>
     <use style="fill:#4682b4;stroke:#4682b4;" x="263.169826" xlink:href="#m6876e0390d" y="149.563433"/>
     <use style="fill:#4682b4;stroke:#4682b4;" x="240.669704" xlink:href="#m6876e0390d" y="122.986381"/>
     <use style="fill:#4682b4;stroke:#4682b4;" x="295.814488" xlink:href="#m6876e0390d" y="162.814482"/>
     <use style="fill:#4682b4;stroke:#4682b4;" x="163.771471" xlink:href="#m6876e0390d" y="109.653623"/>
     <use style="fill:#4682b4;stroke:#4682b4;" x="240.842838" xlink:href="#m6876e0390d" y="149.550744"/>
     <use style="fill:#4682b4;stroke:#4682b4;" x="130.711951" xlink:href="#m6876e0390d" y="176.151023"/>
     <use style="fill:#4682b4;stroke:#4682b4;" x="119.541034" xlink:href="#m6876e0390d" y="189.513726"/>
     <use style="fill:#4682b4;stroke:#4682b4;" x="86.436945" xlink:href="#m6876e0390d" y="176.173626"/>
     <use style="fill:#4682b4;stroke:#4682b4;" x="251.771201" xlink:href="#m6876e0390d" y="83.124898"/>
     <use style="fill:#4682b4;stroke:#4682b4;" x="196.94563" xlink:href="#m6876e0390d" y="149.556704"/>
     <use style="fill:#4682b4;stroke:#4682b4;" x="218.754132" xlink:href="#m6876e0390d" y="43.565665"/>
     <use style="fill:#4682b4;stroke:#4682b4;" x="119.601749" xlink:href="#m6876e0390d" y="136.291934"/>
     <use style="fill:#4682b4;stroke:#4682b4;" x="262.89089" xlink:href="#m6876e0390d" y="122.883731"/>
     <use style="fill:#4682b4;stroke:#4682b4;" x="174.770777" xlink:href="#m6876e0390d" y="69.929872"/>
     <use style="fill:#4682b4;stroke:#4682b4;" x="207.689735" xlink:href="#m6876e0390d" y="136.268389"/>
     <use style="fill:#4682b4;stroke:#4682b4;" x="295.881301" xlink:href="#m6876e0390d" y="136.232955"/>
     <use style="fill:#4682b4;stroke:#4682b4;" x="262.783052" xlink:href="#m6876e0390d" y="96.404532"/>
     <use style="fill:#4682b4;stroke:#4682b4;" x="285.002319" xlink:href="#m6876e0390d" y="176.165741"/>
     <use style="fill:#4682b4;stroke:#4682b4;" x="196.825343" xlink:href="#m6876e0390d" y="43.535277"/>
     <use style="fill:#4682b4;stroke:#4682b4;" x="318.179385" xlink:href="#m6876e0390d" y="162.908476"/>
     <use style="fill:#4682b4;stroke:#4682b4;" x="240.744052" xlink:href="#m6876e0390d" y="69.91434"/>
     <use style="fill:#4682b4;stroke:#4682b4;" x="185.730055" xlink:href="#m6876e0390d" y="109.676088"/>
     <use style="fill:#4682b4;stroke:#4682b4;" x="218.91993" xlink:href="#m6876e0390d" y="176.229865"/>
     <use style="fill:#4682b4;stroke:#4682b4;" x="141.285685" xlink:href="#m6876e0390d" y="189.525786"/>
     <use style="fill:#4682b4;stroke:#4682b4;" x="196.70325" xlink:href="#m6876e0390d" y="69.793764"/>
     <use style="fill:#4682b4;stroke:#4682b4;" x="229.993983" xlink:href="#m6876e0390d" y="189.54393"/>
     <use style="fill:#4682b4;stroke:#4682b4;" x="229.698835" xlink:href="#m6876e0390d" y="56.657583"/>
     <use style="fill:#4682b4;stroke:#4682b4;" x="218.5125" xlink:href="#m6876e0390d" y="122.940267"/>
     <use style="fill:#4682b4;stroke:#4682b4;" x="174.757941" xlink:href="#m6876e0390d" y="122.935174"/>
     <use style="fill:#4682b4;stroke:#4682b4;" x="329.135674" xlink:href="#m6876e0390d" y="176.16307"/>
     <use style="fill:#4682b4;stroke:#4682b4;" x="152.806315" xlink:href="#m6876e0390d" y="96.428594"/>
     <use style="fill:#4682b4;stroke:#4682b4;" x="273.921508" xlink:href="#m6876e0390d" y="136.294764"/>
     <use style="fill:#4682b4;stroke:#4682b4;" x="196.769172" xlink:href="#m6876e0390d" y="176.206381"/>
     <use style="fill:#4682b4;stroke:#4682b4;" x="251.871024" xlink:href="#m6876e0390d" y="136.245122"/>
     <use style="fill:#4682b4;stroke:#4682b4;" x="185.79694" xlink:href="#m6876e0390d" y="83.104734"/>
     <use style="fill:#4682b4;stroke:#4682b4;" x="307.005792" xlink:href="#m6876e0390d" y="176.160962"/>
     <use style="fill:#4682b4;stroke:#4682b4;" x="130.239425" xlink:href="#m6876e0390d" y="149.517828"/>
     <use style="fill:#4682b4;stroke:#4682b4;" x="196.754272" xlink:href="#m6876e0390d" y="123.039065"/>
     <use style="fill:#4682b4;stroke:#4682b4;" x="130.683435" xlink:href="#m6876e0390d" y="122.986052"/>
     <use style="fill:#4682b4;stroke:#4682b4;" x="307.030742" xlink:href="#m6876e0390d" y="149.566039"/>
     <use style="fill:#4682b4;stroke:#4682b4;" x="340.190871" xlink:href="#m6876e0390d" y="189.501"/>
     <use style="fill:#4682b4;stroke:#4682b4;" x="274.08022" xlink:href="#m6876e0390d" y="189.523676"/>
     <use style="fill:#4682b4;stroke:#4682b4;" x="262.963583" xlink:href="#m6876e0390d" y="176.207473"/>
     <use style="fill:#4682b4;stroke:#4682b4;" x="240.978942" xlink:href="#m6876e0390d" y="176.170101"/>
     <use style="fill:#4682b4;stroke:#4682b4;" x="218.816722" xlink:href="#m6876e0390d" y="69.989143"/>
     <use style="fill:#4682b4;stroke:#4682b4;" x="230.05188" xlink:href="#m6876e0390d" y="109.660953"/>
     <use style="fill:#4682b4;stroke:#4682b4;" x="230.03739" xlink:href="#m6876e0390d" y="136.226207"/>
     <use style="fill:#4682b4;stroke:#4682b4;" x="174.622346" xlink:href="#m6876e0390d" y="176.239595"/>
     <use style="fill:#4682b4;stroke:#4682b4;" x="119.432167" xlink:href="#m6876e0390d" y="162.911839"/>
     <use style="fill:#4682b4;stroke:#4682b4;" x="141.681816" xlink:href="#m6876e0390d" y="136.230351"/>
     <use style="fill:#4682b4;stroke:#4682b4;" x="141.737038" xlink:href="#m6876e0390d" y="109.631355"/>
     <use style="fill:#4682b4;stroke:#4682b4;" x="174.667321" xlink:href="#m6876e0390d" y="96.474171"/>
     <use style="fill:#4682b4;stroke:#4682b4;" x="196.832161" xlink:href="#m6876e0390d" y="96.492173"/>
    </g>
   </g>
   <g id="legend_1">
    <g id="patch_6">
     <path d="M 298.8 28.45 
L 390.8 28.45 
Q 392.8 28.45 392.8 26.45 
L 392.8 14.2 
Q 392.8 12.2 390.8 12.2 
L 298.8 12.2 
Q 296.8 12.2 296.8 14.2 
L 296.8 26.45 
Q 296.8 28.45 298.8 28.45 
z
" style="fill:#ffffff;opacity:0.8;stroke:#cccccc;stroke-linejoin:miter;"/>
    </g>
    <g id="line2d_23"/>
    <g id="line2d_24">
     <g>
      <use style="fill:#4682b4;stroke:#4682b4;" x="310.8" xlink:href="#m6876e0390d" y="19.7"/>
     </g>
    </g>
    <g id="text_22">
     <!-- Pareto Front -->
     <defs>
      <path d="M 46.09375 48.4375 
Q 46.09375 39.0625 40.625 33.59375 
Q 35.15625 28.125 25.390625 28.125 
L 14.0625 28.125 
L 14.0625 1.953125 
L 5.078125 1.953125 
L 5.078125 68.75 
L 25.390625 68.75 
Q 35.15625 68.75 40.625 63.28125 
Q 46.09375 57.8125 46.09375 48.4375 
z
M 37.109375 48.4375 
Q 37.109375 55.859375 33.59375 58.59375 
Q 30.078125 61.328125 23.046875 61.328125 
L 14.0625 61.328125 
L 14.0625 35.546875 
L 23.046875 35.546875 
Q 30.078125 35.546875 33.59375 38.28125 
Q 37.109375 41.015625 37.109375 48.4375 
z
" id="SimHei-80"/>
      <path d="M 44.921875 1.953125 
L 35.546875 1.953125 
Q 34.765625 2.734375 34.375 4.09375 
Q 33.984375 5.46875 33.984375 7.421875 
Q 31.25 4.296875 27.34375 2.734375 
Q 23.4375 1.171875 19.140625 1.171875 
Q 12.890625 1.171875 8.59375 4.296875 
Q 4.296875 7.421875 4.296875 13.28125 
Q 4.296875 19.140625 8.203125 22.65625 
Q 12.109375 26.171875 20.3125 27.34375 
Q 25.78125 28.125 29.875 29.296875 
Q 33.984375 30.46875 33.984375 32.421875 
Q 33.984375 34.765625 32.21875 37.109375 
Q 30.46875 39.453125 24.609375 39.453125 
Q 19.921875 39.453125 17.765625 37.6875 
Q 15.625 35.9375 14.84375 32.8125 
L 6.25 32.8125 
Q 7.03125 39.0625 11.90625 42.765625 
Q 16.796875 46.484375 24.609375 46.484375 
Q 33.203125 46.484375 37.5 42.578125 
Q 41.796875 38.671875 41.796875 31.640625 
L 41.796875 10.15625 
Q 41.796875 7.8125 42.578125 5.859375 
Q 43.359375 3.90625 44.921875 1.953125 
z
M 33.984375 16.40625 
L 33.984375 24.21875 
Q 31.640625 23.4375 29.484375 22.84375 
Q 27.34375 22.265625 22.265625 21.484375 
Q 16.40625 20.703125 14.640625 18.75 
Q 12.890625 16.796875 12.890625 14.0625 
Q 12.890625 11.71875 14.640625 9.953125 
Q 16.40625 8.203125 19.921875 8.203125 
Q 23.4375 8.203125 27.53125 10.15625 
Q 31.640625 12.109375 33.984375 16.40625 
z
" id="SimHei-97"/>
      <path d="M 39.0625 37.890625 
Q 31.640625 39.0625 26.5625 35.734375 
Q 21.484375 32.421875 17.96875 24.21875 
L 17.96875 1.953125 
L 10.15625 1.953125 
L 10.15625 45.703125 
L 17.96875 45.703125 
L 17.96875 34.375 
Q 21.484375 40.625 26.75 43.546875 
Q 32.03125 46.484375 39.0625 46.484375 
z
" id="SimHei-114"/>
      <path d="M 44.53125 16.796875 
Q 43.75 9.765625 38.28125 5.46875 
Q 32.8125 1.171875 25.390625 1.171875 
Q 16.015625 1.171875 9.953125 7.21875 
Q 3.90625 13.28125 3.90625 23.828125 
Q 3.90625 34.375 9.953125 40.421875 
Q 16.015625 46.484375 25.390625 46.484375 
Q 33.59375 46.484375 38.859375 41.203125 
Q 44.140625 35.9375 44.140625 23.828125 
L 12.5 23.828125 
Q 12.5 15.234375 16.203125 11.71875 
Q 19.921875 8.203125 25.390625 8.203125 
Q 29.6875 8.203125 32.421875 10.34375 
Q 35.15625 12.5 35.9375 16.796875 
z
M 35.15625 30.078125 
Q 34.375 35.546875 31.640625 37.6875 
Q 28.90625 39.84375 24.609375 39.84375 
Q 20.703125 39.84375 17.578125 37.6875 
Q 14.453125 35.546875 12.890625 30.078125 
z
" id="SimHei-101"/>
      <path d="M 42.96875 3.125 
Q 41.015625 2.34375 38.46875 1.75 
Q 35.9375 1.171875 31.640625 1.171875 
Q 24.609375 1.171875 20.3125 5.078125 
Q 16.015625 8.984375 16.015625 16.015625 
L 16.015625 39.453125 
L 2.734375 39.453125 
L 2.734375 45.703125 
L 16.015625 45.703125 
L 16.015625 60.9375 
L 23.828125 60.9375 
L 23.828125 45.703125 
L 39.84375 45.703125 
L 39.84375 39.453125 
L 23.828125 39.453125 
L 23.828125 15.625 
Q 23.828125 12.5 25.390625 10.34375 
Q 26.953125 8.203125 31.25 8.203125 
Q 35.546875 8.203125 38.28125 8.984375 
Q 41.015625 9.765625 42.96875 10.9375 
z
" id="SimHei-116"/>
      <path d="M 45.703125 23.828125 
Q 45.703125 13.671875 39.453125 7.421875 
Q 33.203125 1.171875 24.609375 1.171875 
Q 16.015625 1.171875 9.765625 7.421875 
Q 3.515625 13.671875 3.515625 23.828125 
Q 3.515625 33.984375 9.765625 40.234375 
Q 16.015625 46.484375 24.609375 46.484375 
Q 33.203125 46.484375 39.453125 40.234375 
Q 45.703125 33.984375 45.703125 23.828125 
z
M 37.109375 23.828125 
Q 37.109375 31.640625 33.203125 35.546875 
Q 29.296875 39.453125 24.609375 39.453125 
Q 19.921875 39.453125 16.015625 35.546875 
Q 12.109375 31.640625 12.109375 23.828125 
Q 12.109375 16.015625 16.015625 12.109375 
Q 19.921875 8.203125 24.609375 8.203125 
Q 29.296875 8.203125 33.203125 12.109375 
Q 37.109375 16.015625 37.109375 23.828125 
z
" id="SimHei-111"/>
      <path id="SimHei-32"/>
      <path d="M 43.75 1.953125 
L 35.9375 1.953125 
L 35.9375 30.078125 
Q 35.9375 34.765625 33.59375 37.5 
Q 31.25 40.234375 27.34375 40.234375 
Q 22.265625 40.234375 17.765625 34.953125 
Q 13.28125 29.6875 13.28125 21.875 
L 13.28125 1.953125 
L 5.46875 1.953125 
L 5.46875 45.703125 
L 13.28125 45.703125 
L 13.28125 37.5 
Q 16.40625 41.796875 20.109375 44.140625 
Q 23.828125 46.484375 29.6875 46.484375 
Q 36.71875 46.484375 40.234375 42.578125 
Q 43.75 38.671875 43.75 32.8125 
z
" id="SimHei-110"/>
     </defs>
     <g transform="translate(328.8 23.2)scale(0.1 -0.1)">
      <use xlink:href="#SimHei-80"/>
      <use x="50" xlink:href="#SimHei-97"/>
      <use x="100" xlink:href="#SimHei-114"/>
      <use x="150" xlink:href="#SimHei-101"/>
      <use x="200" xlink:href="#SimHei-116"/>
      <use x="250" xlink:href="#SimHei-111"/>
      <use x="300" xlink:href="#SimHei-32"/>
      <use x="350" xlink:href="#SimHei-70"/>
      <use x="400" xlink:href="#SimHei-114"/>
      <use x="450" xlink:href="#SimHei-111"/>
      <use x="500" xlink:href="#SimHei-110"/>
      <use x="550" xlink:href="#SimHei-116"/>
     </g>
    </g>
   </g>
  </g>
 </g>
 <defs>
  <clipPath id="p7b8a18e362">
   <rect height="255.024" width="390.6" x="7.2" y="7.2"/>
  </clipPath>
 </defs>
</svg>
